# xmcd
#
# Track frame offsets:
#	150
#	12146
#	23174
#	32945
#	46074
#	57601
#	70878
#	80168
#	92018
#	104907
#	116108
#	126583
#
# Disc length: 1839 seconds
# Revision: 1
# Processed by: cddbd v1.5.2PL0 Copyright (c) Steve Scherf et al.
# Submitted via: dBpowerAMP V12.0
#
DISCID=ae072d0c
DTITLE=Frankie Laine - Hell Bent for Leather
DYEAR=1961
DGENRE=Country
TTITLE0=Wanted Man
TTITLE1=High Noon
TTITLE2=Wanted Man
TTITLE3=Bowie Knife
TTITLE4=Along the Navajo Trail
TTITLE5=The Cry of the Wild Goose
TTITLE6=Rawhide
TTITLE7=City Boy
TTITLE8=Cool Water
TTITLE9=The 3:10 To Yuma
TTITLE10=The Hanging Tree
TTITLE11=Mule Train
EXTD=
EXTT0=
EXTT1=
EXTT2=
EXTT3=
EXTT4=
EXTT5=
EXTT6=
EXTT7=
EXTT8=
EXTT9=
EXTT10=
EXTT11=
PLAYORDER=
